<?xml version="1.0" encoding="utf-8"?>
<!-- Generator: Adobe Illustrator 26.5.0, SVG Export Plug-In . SVG Version: 6.00 Build 0)  -->
<svg version="1.1" id="Layer_1" xmlns="http://www.w3.org/2000/svg" xmlns:xlink="http://www.w3.org/1999/xlink" x="0px" y="0px"
	 viewBox="0 0 500 500" style="enable-background:new 0 0 500 500;" xml:space="preserve">
<style type="text/css">
	.st0{fill:#ED1C24;}
	.st1{fill:#FFFFFF;}
</style>
<path class="st0" d="M174.26,236.43l-21.49-0.41h-34.99c-6.34,0-11.46-5.12-11.46-11.46c0-6.55,5.12-11.66,11.46-11.66h73.87
	c0.77,0,1.53-0.06,26.44-0.15v-38.16c-24.91-0.09-25.67-0.15-26.44-0.15h-74.69c-0.41,0-0.82,0-1.23,0
	c-26.6,1.23-47.68,23.12-47.68,50.13c0,27.42,22.3,49.93,49.72,49.93h34.58l21.48,0.2h0.2c6.96,0,12.69,5.73,12.69,12.48
	c0,6.96-5.73,12.69-12.69,12.69H76.05v38.26h98.01c5.62,0,11.02-0.91,16.07-2.58l31.18-29.23c2.38-5.9,3.7-12.36,3.7-19.14
	C225.01,259.14,202.3,236.63,174.26,236.43z"/>
<g>
	<path class="st0" d="M432.5,173.43c-60.29,27.8-127.13,88.56-166.95,128.16v-0.13c-6.44,6.43-13.01,13.17-19.7,20.2
		c-10.08,10.53-15.9,17.04-15.9,17.04l1.35-0.44h62.43c50.38,0,80.8-36.37,80.8-84.39c0-9.98-1.35-19.22-3.87-27.64
		C403.79,197.34,432.5,173.43,432.5,173.43z M292.25,309.49h-10.38c11.76-13.41,32.98-33.48,55.88-54.12
		C337.34,286.7,323.34,309.49,292.25,309.49z"/>
	<path class="st0" d="M265.55,269.97c12.37-9.28,24.49-18.05,29.91-20.97c8.6-4.63-13.62-0.14-29.91,5.19v-51.84h26.91
		c19.44,0,31.9,8.98,38.74,22c9.95-6.4,20.06-12.61,30.13-18.42c-13.51-20.43-36.67-32.34-66.09-32.34h-65.29V297.7
		c9.19-7.34,21.42-16.91,35.6-27.52V269.97z"/>
</g>
<g>
	<g>
		<rect x="273.47" y="353.88" class="st1" width="6.78" height="11.92"/>
		<path class="st1" d="M274.9,389.43h1.28v-13.64c-1.14-0.3-1.98-1.33-1.98-2.56c0-1.47,1.19-2.66,2.66-2.66
			c1.47,0,2.66,1.19,2.66,2.66c0,1.23-0.84,2.26-1.98,2.56v13.64h1.28l6.19-17.71l-4.76-7.21l-3.39-0.09l-3.39,0.09l-4.76,7.21
			L274.9,389.43z"/>
		<path class="st0" d="M282.58,350.86v8.93c0,1.52-1.24,2.76-2.76,2.76h-5.93c-1.52,0-2.76-1.24-2.76-2.76v-8.93H282.58z"/>
	</g>
	<g>
		<path class="st0" d="M76.65,377.61l9.06-1.63c0.76,2.56,2.72,3.84,5.87,3.84c2.46,0,3.68-0.65,3.68-1.96
			c0-0.68-0.28-1.21-0.85-1.6c-0.57-0.38-1.58-0.72-3.04-1.01c-5.58-1.07-9.16-2.47-10.74-4.19c-1.58-1.72-2.37-3.75-2.37-6.08
			c0-3,1.14-5.49,3.41-7.48c2.27-1.99,5.55-2.98,9.82-2.98c6.48,0,10.75,2.6,12.84,7.8l-8.09,2.45c-0.84-2.13-2.54-3.19-5.11-3.19
			c-2.13,0-3.19,0.66-3.19,1.98c0,0.59,0.24,1.05,0.72,1.37c0.48,0.33,1.41,0.63,2.8,0.93c3.81,0.8,6.51,1.52,8.11,2.14
			c1.6,0.62,2.94,1.68,4.01,3.18c1.07,1.5,1.61,3.27,1.61,5.31c0,3.22-1.31,5.83-3.92,7.82c-2.61,2-6.04,3-10.28,3
			C83.25,387.3,78.47,384.07,76.65,377.61z"/>
		<path class="st0" d="M126.14,386.81l-1.8-6.27h-8.52l-1.91,6.27h-7.93L115.8,355h10.32l9.98,31.81H126.14z M117.48,373.6h5.14
			l-2.57-9.23L117.48,373.6z"/>
		<path class="st0" d="M173.62,355v31.81h-9.07v-22.74l-5.88,22.74h-6.2l-6.12-22.74v22.74h-7.32V355h12.76l4.62,16.9l4.4-16.9
			H173.62z"/>
		<path class="st1" d="M179.16,386.81V355h12.3c5.34,0,9.34,1.59,12,4.76c2.66,3.17,3.98,6.84,3.98,11c0,4.75-1.43,8.62-4.27,11.59
			c-2.85,2.97-6.55,4.46-11.1,4.46H179.16z M188.92,379.49h2.54c1.62,0,2.98-0.78,4.09-2.35c1.11-1.57,1.67-3.71,1.67-6.41
			c0-2.32-0.49-4.31-1.48-5.99c-0.99-1.68-2.41-2.52-4.28-2.52h-2.54V379.49z"/>
		<path class="st1" d="M235.51,379.21v7.6h-23.93V355h23.93v7.34h-14.35v4.62h11.6v7.06h-11.6v5.19H235.51z"/>
		<path class="st1" d="M236.09,377.61l9.07-1.63c0.76,2.56,2.72,3.84,5.87,3.84c2.45,0,3.68-0.65,3.68-1.96
			c0-0.68-0.28-1.21-0.85-1.6c-0.57-0.38-1.58-0.72-3.04-1.01c-5.58-1.07-9.16-2.47-10.74-4.19c-1.58-1.72-2.38-3.75-2.38-6.08
			c0-3,1.14-5.49,3.42-7.48c2.27-1.99,5.55-2.98,9.82-2.98c6.48,0,10.76,2.6,12.84,7.8l-8.09,2.45c-0.84-2.13-2.54-3.19-5.1-3.19
			c-2.13,0-3.19,0.66-3.19,1.98c0,0.59,0.24,1.05,0.72,1.37c0.48,0.33,1.41,0.63,2.8,0.93c3.81,0.8,6.51,1.52,8.11,2.14
			c1.6,0.62,2.94,1.68,4.01,3.18s1.61,3.27,1.61,5.31c0,3.22-1.31,5.83-3.92,7.82c-2.61,2-6.03,3-10.28,3
			C242.69,387.3,237.91,384.07,236.09,377.61z"/>
		<path class="st1" d="M319.7,368.98v17.83h-4.78c-0.39-1.32-0.82-2.43-1.28-3.33c-1.97,2.55-4.89,3.82-8.76,3.82
			c-4.1,0-7.47-1.43-10.11-4.3c-2.64-2.87-3.96-6.75-3.96-11.64c0-4.75,1.28-8.75,3.83-11.99c2.56-3.24,6.36-4.86,11.41-4.86
			c3.79,0,6.84,0.96,9.16,2.89c2.31,1.93,3.81,4.66,4.5,8.2l-9.46,0.93c-0.47-3.31-1.92-4.96-4.36-4.96c-3.2,0-4.8,3.05-4.8,9.13
			c0,3.68,0.51,6.11,1.54,7.28c1.03,1.17,2.27,1.76,3.73,1.76c1.18,0,2.19-0.36,3.02-1.07s1.25-1.69,1.27-2.94h-5.27v-6.76H319.7z"
			/>
		<path class="st1" d="M352.04,386.81h-7.95l-8.71-14.05c-1.12-1.8-2.25-3.99-3.38-6.57c0.51,2.05,0.77,3.79,0.77,5.22v15.4h-7.92
			V355h9.23l7.41,11.65c1.48,2.32,2.59,4.35,3.36,6.11c-0.5-2.72-0.75-5.5-0.75-8.34V355h7.95V386.81z"/>
		<path class="st1" d="M354.3,377.61l9.07-1.63c0.76,2.56,2.72,3.84,5.87,3.84c2.45,0,3.68-0.65,3.68-1.96
			c0-0.68-0.28-1.21-0.85-1.6c-0.57-0.38-1.58-0.72-3.04-1.01c-5.58-1.07-9.16-2.47-10.74-4.19c-1.58-1.72-2.38-3.75-2.38-6.08
			c0-3,1.14-5.49,3.42-7.48c2.27-1.99,5.55-2.98,9.82-2.98c6.48,0,10.76,2.6,12.84,7.8l-8.09,2.45c-0.84-2.13-2.54-3.19-5.1-3.19
			c-2.13,0-3.19,0.66-3.19,1.98c0,0.59,0.24,1.05,0.72,1.37c0.48,0.33,1.41,0.63,2.8,0.93c3.81,0.8,6.51,1.52,8.11,2.14
			c1.6,0.62,2.94,1.68,4.01,3.18c1.07,1.5,1.61,3.27,1.61,5.31c0,3.22-1.31,5.83-3.92,7.82c-2.61,2-6.03,3-10.28,3
			C360.91,387.3,356.12,384.07,354.3,377.61z"/>
	</g>
</g>
</svg>
